<?xml version="1.0" encoding="utf-8"?>
<!-- Generator: Adobe Illustrator 27.5.0, SVG Export Plug-In . SVG Version: 6.00 Build 0)  -->
<svg version="1.1" id="OBJECTS" xmlns="http://www.w3.org/2000/svg" xmlns:xlink="http://www.w3.org/1999/xlink" x="0px" y="0px"
	 viewBox="0 0 135.1 125.2" style="enable-background:new 0 0 135.1 125.2;" xml:space="preserve">
<style type="text/css">
	.st0{fill:#78982B;}
	.st1{fill:#FFFFFF;}
	.st2{fill:#551B4E;}
	.st3{fill:#AE293F;}
	.st4{fill:#02515D;}
</style>
<g>
	<g>
		<polygon class="st0" points="90.5,109.3 90.5,114.7 90.7,114.7 90.7,109.3 90.7,106.1 90.5,106.2 		"/>
		<polygon class="st0" points="84,90.9 84,86.5 83.6,86.4 83.6,91.1 		"/>
		<polygon class="st0" points="93.9,92.2 93,91.9 93,97.1 93.9,96.8 95.2,96.3 99.3,94.9 99.3,94.5 95.2,92.8 		"/>
		<path class="st0" d="M142.9,88.2l-0.6-0.5l-0.9-0.8l-3.1-3l-0.6-0.6l-0.2,0.1l-3.6,1.3l-0.8,0.3l-1.2,0.4l-0.4,0.1l-2.7,0.9
			l-0.8,0.3l-1.8,0.6l-5.7,2l-1.2,0.4l-3.5,1.2l-1.9,0.7l-5.2,1.8l-2.9,1l-2.4,0.8l-2.1,0.7v-2.5v-0.3l-1.5-0.6l-4.8-2l-4.3-1.8v0.5
			L84,92.8l-2.1,1.1v-8.2v-0.2L65.2,78v30.5l-0.2,0.1V78.4l-7.4,7.7l-7.8,8.2v30.2v4.6H65v-0.8l0.2,0v1h0.6H67v-0.5v-0.4l1.4,0.1
			v-8.1v-9.5l1.4-0.4v9.9v8.2l0,0l1.5,0.1v-8.3v-10.4l2-0.6v5.3v14H75v-14v-5.5V109l2-0.6v0.9v5.5v14h1.9v-14v-5.4v-1.5l2.4-0.7v2.2
			v5.4v14.1v0.5h0.7V129h1.5v-14.3v-5.4v-2.8l2.9-0.8v3.7v5.4V129h2.5v-14.4v-5.4v-4.4l2.6-0.8l1-0.3v5.4v5.3v14.2h2.4v-14.2v-5.3
			v-6.2l0.4-0.1l4.7-1.4v7.7v5.3v4.2v10v0.5v1.7l2.8,0.2v-23.3V105v-1.6v-2.6l0.8-0.2l5.1-1.5v1.5v2.9v1.6v2.9v10.5l-0.5,0.1
			l0.5,0.2v12.9l3,0.2v-14.1V98.2l1.3-0.4l4.1-1.2l1.7-0.5l0.8-0.2l0.4-0.1v2.6v0.8v4.2v0.8v4.3v0.8v3.9v0.8v8.4v10.3l4.1,0.3v-9.3
			V115v-0.8v-4.4V109v-4.6v-0.8v-4.5v-0.8v-3.8l1.1-0.3L126,94l2.2-0.7l4.4-1.3l0.6-0.2l0.8-0.2l0.3-0.1v0.6v0.8v5.6v0.8v4.9v0.8
			v5.3v0.8v5.3v0.8v8.9v7.8l2.8,0.2l1.8-0.4v-8v-8.8v-0.8v-5.2V110v-5.2v-0.8v-4.8v-0.8v-5.4v-0.8v-0.4l0.6,0.4l1,0.8l2.4,1.9
			l0.3,0.2v21.2v8.7v7.5l1.1-0.2V125v-8.7v-0.8v-5v-0.8v-5v-0.8v-4.7v-0.8v-2.5l0.8,0.7v-3.4v-0.8v-2.3l-1.4-1.4L142.9,88.2z
			 M81.5,102.9l-13.3,4.6l-2.5,0.9V78.7l2.5,1.1l13.3,5.9V102.9z M101,96.1l-1,0.3l-4.8,1.7l-1.3,0.5l-2.5,0.9V89.4l2.5,1.1l1.3,0.6
			l4.8,2l1,0.4V96.1z"/>
		<polygon class="st0" points="96.5,109.3 96.5,114.6 96.5,116.4 98.3,117.6 98.3,114.6 98.3,109.3 98.3,103.9 96.5,104.4 		"/>
	</g>
</g>
<g>
	<g>
		<polygon class="st1" points="111.6,127.8 118.3,128.7 118.3,97.6 111.6,99.5 		"/>
		<polygon class="st1" points="132.2,93.5 131.4,93.7 131.1,93.8 131.1,93.8 127.9,94.7 127.9,94.7 124.8,95.6 124.8,99 124.8,99.7 
			124.8,104.5 124.8,105.2 124.8,110.2 124.8,110.9 124.8,115.7 124.6,115.7 124.6,126.2 131.2,128.2 131.2,128.5 132.1,128.5 
			132.1,128.5 132.1,128.5 133.2,128.4 133.2,118.3 133.2,117.6 133.2,112 133.2,111.3 133.2,105.6 133.2,104.9 133.2,99.7 
			133.2,99 133.2,93.2 132.2,93.5 		"/>
		<polygon class="st1" points="116,89.8 116,69.5 102.8,76.7 109.3,77.3 109.3,77.4 112.5,77.7 112.5,91 		"/>
		<path class="st1" d="M104.2,91.1v-0.1l4.4,0.2v-4.5l-4.4-0.2v-0.1l4.4,0.2V82l-4.4-0.2v-0.1l4.4,0.2v-4.5l-4.5-0.2v0.2l-4.4-0.2
			v4.5l4.4,0.2V82l-4.4-0.2v4.5l4.4,0.2v0.1l-4.4-0.2v4.5l4.4,0.2v0.1L99.4,91V75l-6.5,4.5v9.8l6.5,2.7V92l1.2,0.6
			c0.4,0.2,0.6,0.5,0.6,0.9V95l3-1v0l7.1-2.5L104.2,91.1z"/>
		<polygon class="st1" points="140,127.8 142.4,127.6 142.4,96.2 140,94.3 		"/>
		<path class="st1" d="M131.2,38.1v3.7l-6.7,5.4l1.4,0.3v4.1l-0.9,0.6l-2.2-0.3v-3.2l-2.7,2.2v0l-1.3,1.1v0l-0.6,0.5l-0.1,0.1l0,0
			l-1.7,1.4v0l-3.3,2.7v0l-3.7,3.1v5.4l-2.9,2v3V71v3.7l3.6-2.1v0l3-1.7l0,0l3.3-1.9v-0.1l0.2-0.1h1.5v5.3v0.8v4v0.7v4.5v0.7v4.2
			l2-0.7v0l2.7-0.9v0l2.7-0.9v0l2.4-0.8v0l0.3-0.1l0.4-0.1v0l2.5-0.9v0l2.7-0.9v0l3.7-1.3c0.1,0,0.2,0,0.2,0l0.2,0l0.2,0.1
			c0.2,0.1,0.3,0.1,0.3,0.2l4.6,4.5v0l0.1,0.1l0,0l2.8,2.7c0.2,0.2,0.3,0.5,0.3,0.7v2.5v0.7v3.5c0,0.4-0.2,0.7-0.5,0.9l-0.4,0.2v0.9
			v0.7v5v0.7v5.3v0.7v5.3v0.7v9.8l21.4-1.8v-79L131.2,38.1z M153.9,46.2l0.7,0.1v0.4v0.9V51l-1.4,1.1l-0.4-0.1v0l-0.5-0.1h0.3V47
			L153.9,46.2z"/>
	</g>
	<path class="st2" d="M56.5,42l37.9,14.4l13.9,5.3l-1.8,1.6v11.6l0.9-0.5v-2.6l0,0l-0.4-0.6l0.5-0.3v-2l0,0l-0.4-0.6l0.5-0.3v-4.6
		l0.1-0.1L109,62l0.6,0.2l-1.3,1.1v3.9l2-1.4v-4.2l0.3-0.8l-0.2-0.1l12.6-10.4v-1.7l1.1-0.9l1.7,0.3l5.7-4.7v-2.3l-21.9,19.4
		L95.3,55L55.7,39.9l-0.2,0.4l-0.1-0.1v0.4l0,0L45.1,57.6c0,0.1-0.1,0.1-0.1,0.2v64.8c0,0.2,0.2,0.4,0.4,0.4h3.3V92.8l7.8-8.2V42z"
		/>
	<g>
		<g>
			<polygon class="st3" points="113.4,99.4 113.3,99.5 113.3,125.5 118.3,126.2 118.3,98 117.5,98.2 			"/>
			<polygon class="st3" points="148.4,115.3 152.2,115.1 152.2,110.3 148.4,110.5 			"/>
			<polygon class="st3" points="122.6,73.4 121.5,74 121.5,78.1 122.6,77.7 			"/>
			<polygon class="st3" points="122.6,66.3 121.5,67 121.5,73.2 122.6,72.6 			"/>
			<polygon class="st3" points="122.6,78.5 121.5,78.9 121.5,83.3 122.6,83 			"/>
			<polygon class="st3" points="121.5,87.2 122.6,86.8 122.6,83.8 121.5,84.1 			"/>
			<polygon class="st3" points="122.6,61.8 121.5,62.5 121.5,66.1 122.6,65.4 			"/>
			<polygon class="st3" points="122.6,58.3 121.5,59.1 121.5,61.6 122.6,60.9 			"/>
			<polygon class="st3" points="123.4,86.5 125.2,85.9 125.2,83 123.4,83.5 			"/>
			<polygon class="st3" points="125.2,56.5 123.4,57.7 123.4,60.4 125.2,59.2 			"/>
			<polygon class="st3" points="125.2,60.1 123.4,61.3 123.4,65 125.2,63.9 			"/>
			<polygon class="st3" points="125.2,64.8 123.4,65.9 123.4,72.2 125.2,71.3 			"/>
			<polygon class="st3" points="125.2,72.2 123.4,73.1 123.4,77.4 125.2,76.8 			"/>
			<polygon class="st3" points="125.2,77.6 123.4,78.2 123.4,82.7 125.2,82.2 			"/>
			<polygon class="st3" points="123.9,54.6 124.8,54 123.9,53.9 			"/>
			<polygon class="st3" points="125.2,54.5 123.4,55.7 123.4,56.8 125.2,55.6 			"/>
			<polygon class="st3" points="122.6,51.5 121.5,52.5 121.5,58.1 122.6,57.3 			"/>
			<polygon class="st3" points="131.6,69 129,70.3 129,75.4 131.6,74.4 			"/>
			<polygon class="st3" points="131.6,61 129,62.6 129,69.4 131.6,68.1 			"/>
			<polygon class="st3" points="131.6,55.9 129,57.7 129,61.7 131.6,60.1 			"/>
			<polygon class="st3" points="129,84.6 131.6,83.7 131.6,81.1 129,81.9 			"/>
			<polygon class="st3" points="131.6,75.2 129,76.2 129,81.1 131.6,80.3 			"/>
			<polygon class="st3" points="131.6,44.2 126.6,48.2 127.1,48.3 127.1,52.4 129,51.1 129,51.1 131.6,49.3 			"/>
			<polygon class="st3" points="131.6,52 129,53.9 129,56.8 131.6,55 			"/>
			<polygon class="st3" points="142.9,51.3 143.4,51.4 147.6,52.3 147.6,52.3 151.4,53.1 151.3,53.1 151.3,48.3 149.7,47.9 
				132,43.9 132,43.9 132,49.1 142.9,51.3 			"/>
			<polygon class="st3" points="152.2,104.8 148.4,104.8 148.4,109.7 152.2,109.6 			"/>
			<polygon class="st3" points="131.6,50 129,51.9 129,53 131.6,51.1 			"/>
			<polygon class="st3" points="129,115.5 131.6,116.2 131.6,110.9 129,110.5 			"/>
			<polygon class="st3" points="120.7,67.5 119.5,68.1 119.5,74.1 120.7,73.5 			"/>
			<polygon class="st3" points="120.7,63 119.5,63.8 119.5,67.2 120.7,66.6 			"/>
			<polygon class="st3" points="129,98.4 131.6,98.4 131.6,94.1 129,94.9 			"/>
			<polygon class="st3" points="120.7,79.2 119.5,79.6 119.5,83.9 120.7,83.5 			"/>
			<polygon class="st3" points="120.7,59.6 119.5,60.4 119.5,62.9 120.7,62.1 			"/>
			<polygon class="st3" points="120.7,74.4 119.5,75 119.5,78.8 120.7,78.4 			"/>
			<polygon class="st3" points="129,103.9 131.6,104 131.6,99.2 129,99.1 			"/>
			<polygon class="st3" points="129,109.7 131.6,110.1 131.6,104.8 129,104.6 			"/>
			<polygon class="st3" points="125.8,124 131.5,125.8 131.5,117 125.8,115.4 			"/>
			<polygon class="st3" points="119.5,87.9 120.7,87.5 120.7,84.3 119.5,84.7 			"/>
			<polygon class="st3" points="120.7,53.1 119.5,54 119.5,59.5 120.7,58.7 			"/>
			<polygon class="st3" points="113.3,59.2 111.1,61 111.1,65.3 113.3,63.8 			"/>
			<polygon class="st3" points="108.3,73.8 110.4,72.6 110.4,69.7 108.3,71.1 			"/>
			<polygon class="st3" points="116.5,62.5 114.1,64.2 114.1,66.4 116.5,64.9 			"/>
			<polygon class="st3" points="111.1,68.3 113.3,66.9 113.3,64.7 111.1,66.2 			"/>
			<polygon class="st3" points="116,89.1 116,71.3 106.5,76.4 111.1,76.9 111.1,77 113.8,77.2 113.8,77.1 114.1,77.2 114.1,89.8 			
				"/>
			<polygon class="st3" points="116.5,56.6 114.1,58.6 114.1,63.3 116.5,61.6 			"/>
			<polygon class="st3" points="111.1,72.2 113.3,70.9 113.3,67.8 111.1,69.2 			"/>
			<polygon class="st3" points="106,92.6 108.5,91.7 106,91.5 			"/>
			<polygon class="st3" points="108.9,87.2 106,87.1 106,90 108.9,90.1 			"/>
			<polygon class="st3" points="116.5,65.8 114.1,67.3 114.1,70.5 116.5,69.1 			"/>
			<polygon class="st3" points="108.9,82.8 106,82.6 106,85.5 108.9,85.7 			"/>
			<polygon class="st3" points="100,90.6 100,76.7 95.2,80.1 95.2,88.6 			"/>
			<path class="st3" d="M104.7,93v-1.3l-2.4-0.1c0.6,0.3,1,0.9,1,1.5v0.4L104.7,93z"/>
			<polygon class="st3" points="108.9,78.3 106,78.1 106,81.1 108.9,81.2 			"/>
			<polygon class="st3" points="110.4,66.7 108.3,68.2 108.3,70.2 110.4,68.8 			"/>
			<polygon class="st3" points="104.7,78.3 101.7,78.1 101.7,81.1 104.7,81.2 			"/>
			<polygon class="st3" points="104.7,87.2 101.7,87.1 101.7,90 104.7,90.1 			"/>
			<polygon class="st3" points="128.2,58.2 126,59.6 126,63.5 128.2,62.2 			"/>
			<polygon class="st3" points="126,85.6 128.2,84.9 128.2,82.1 126,82.8 			"/>
			<polygon class="st3" points="128.2,76.5 126,77.3 126,82 128.2,81.3 			"/>
			<polygon class="st3" points="128.2,54.4 126,56 126,58.7 128.2,57.3 			"/>
			<polygon class="st3" points="128.2,70.7 126,71.8 126,76.5 128.2,75.7 			"/>
			<polygon class="st3" points="128.2,63 126,64.4 126,70.9 128.2,69.8 			"/>
			<polygon class="st3" points="128.2,52.4 126,53.9 126,55 128.2,53.5 			"/>
			<polygon class="st3" points="118.8,60.9 117.2,62 117.2,64.4 118.8,63.4 			"/>
			<polygon class="st3" points="118.8,54.7 117.2,55.9 117.2,61.1 118.8,60 			"/>
			<polygon class="st3" points="117.2,68.7 117.3,68.7 118.8,68.7 118.8,64.3 117.2,65.3 			"/>
			<polygon class="st3" points="126,103.7 128.2,103.8 128.2,99.1 126,99.1 			"/>
			<polygon class="st3" points="128.2,95.1 126,95.7 126,98.3 128.2,98.4 			"/>
			<polygon class="st3" points="126,114.7 128.2,115.3 128.2,110.4 126,110 			"/>
			<polygon class="st3" points="126,109.3 128.2,109.6 128.2,104.6 126,104.5 			"/>
			<polygon class="st3" points="104.7,82.8 101.7,82.6 101.7,85.5 104.7,85.7 			"/>
			<polygon class="st3" points="160.5,78.4 157.2,78 157.2,82.4 160.5,82.7 			"/>
			<polygon class="st3" points="160.5,72.9 157.2,72.5 157.2,77.2 160.5,77.6 			"/>
			<polygon class="st3" points="160.5,83.5 157.2,83.2 157.2,87.9 160.5,88.2 			"/>
			<polygon class="st3" points="160.5,65.8 157.2,65.3 157.2,71.7 160.5,72.2 			"/>
			<polygon class="st3" points="160.5,88.9 157.2,88.7 157.2,93.2 160.5,93.4 			"/>
			<polygon class="st3" points="160.5,94.1 157.2,94 157.2,98.8 160.5,98.9 			"/>
			<polygon class="st3" points="152.2,99.5 148.4,99.4 148.4,104.1 152.2,104.1 			"/>
			<polygon class="st3" points="154.6,52.6 153.4,53.6 159.6,54.9 159.6,50.2 154.6,49.1 			"/>
			<polygon class="st3" points="160.5,99.6 157.2,99.6 157.2,104.1 160.5,104.1 			"/>
			<polygon class="st3" points="160.5,50.4 160.2,50.3 160.2,55.6 157.2,55 157.2,55.9 160.5,56.5 			"/>
			<polygon class="st3" points="160.5,57.3 157.2,56.6 157.2,59.4 160.5,59.9 			"/>
			<polygon class="st3" points="153,58.6 156.4,59.2 156.4,56.5 153,55.8 			"/>
			<polygon class="st3" points="160.5,60.7 157.2,60.1 157.2,64.5 160.5,65.1 			"/>
			<polygon class="st3" points="157.2,114.7 160.5,114.5 160.5,110.1 157.2,110.2 			"/>
			<polygon class="st3" points="133.2,81.1 132.1,81 132,81 132,83.5 133.2,83.1 			"/>
			<polygon class="st3" points="132,98.4 132.6,98.4 132.6,93.8 132,93.9 			"/>
			<polygon class="st3" points="133.2,68.9 132.1,68.7 132,68.8 132,74.3 133.2,74.4 			"/>
			<polygon class="st3" points="133.2,75.2 132.1,75.1 132,75.1 132,80.2 133.2,80.3 			"/>
			<polygon class="st3" points="160.5,104.8 157.2,104.8 157.2,109.4 160.5,109.3 			"/>
			<polygon class="st3" points="132,104.1 132.6,104.1 132.6,99.2 132,99.2 			"/>
			<polygon class="st3" points="132.1,126.1 132.6,126 132.6,117.1 132.1,117.1 			"/>
			<polygon class="st3" points="132,110.2 132.1,110.2 132.6,110.2 132.6,104.8 132,104.8 			"/>
			<polygon class="st3" points="132,116.3 132.1,116.3 132.6,116.3 132.6,111 132,111 			"/>
			<polygon class="st3" points="153,104.1 156.4,104.1 156.4,99.6 153,99.5 			"/>
			<polygon class="st3" points="161.3,93.4 163.6,93.5 163.6,89.2 161.3,89 			"/>
			<polygon class="st3" points="161.3,88.2 163.6,88.4 163.6,83.8 161.3,83.6 			"/>
			<polygon class="st3" points="161.3,82.8 163.6,83 163.6,78.7 161.3,78.5 			"/>
			<polygon class="st3" points="161.3,65.2 163.6,65.6 163.6,61.3 161.3,60.9 			"/>
			<polygon class="st3" points="161.3,77.7 163.6,78 163.6,73.4 161.3,73.1 			"/>
			<polygon class="st3" points="161.3,72.3 163.6,72.6 163.6,66.4 161.3,66 			"/>
			<polygon class="st3" points="161.3,114.5 163.6,114.3 163.6,110 161.3,110 			"/>
			<polygon class="st3" points="161.3,104.1 163.6,104.1 163.6,99.7 161.3,99.6 			"/>
			<polygon class="st3" points="161.3,109.3 163.6,109.2 163.6,104.8 161.3,104.8 			"/>
			<polygon class="st3" points="161.3,98.9 163.6,98.9 163.6,94.3 161.3,94.2 			"/>
			<polygon class="st3" points="153,63.7 156.4,64.3 156.4,60 153,59.4 			"/>
			<polygon class="st3" points="153,82.1 156.4,82.4 156.4,77.9 153,77.5 			"/>
			<polygon class="st3" points="153,87.7 156.4,87.9 156.4,83.1 153,82.8 			"/>
			<polygon class="st3" points="153,93 156.4,93.2 156.4,88.7 153,88.4 			"/>
			<polygon class="st3" points="153,76.7 156.4,77.1 156.4,72.3 153,71.8 			"/>
			<polygon class="st3" points="153,71.1 156.4,71.6 156.4,65.1 153,64.5 			"/>
			<polygon class="st3" points="153,109.5 156.4,109.4 156.4,104.8 153,104.8 			"/>
			<polygon class="st3" points="153,115 156.4,114.8 156.4,110.2 153,110.3 			"/>
			<polygon class="st3" points="161.3,60.1 163.6,60.5 163.6,57.9 161.3,57.4 			"/>
			<polygon class="st3" points="153,98.7 156.4,98.8 156.4,93.9 153,93.8 			"/>
			<polygon class="st3" points="163.6,51.1 161.3,50.6 161.3,56.6 163.6,57.1 			"/>
			<polygon class="st3" points="133.2,60.9 132.1,60.7 132,60.8 132,68 133.2,68.1 			"/>
			<polygon class="st3" points="153,55 156.4,55.7 156.4,54.8 153,54.1 			"/>
			<polygon class="st3" points="147.6,76.9 143.6,76.4 143.6,81.2 147.6,81.6 			"/>
			<polygon class="st3" points="147.6,82.4 143.6,82 143.6,86.6 144.1,87 147.6,87.3 			"/>
			<polygon class="st3" points="147.6,71 143.6,70.5 143.6,75.6 147.6,76.1 			"/>
			<path class="st3" d="M147.6,93.5l-0.9,0v3.3c0,0.6-0.3,1.2-0.8,1.5v0.4l1.7,0V93.5z"/>
			<polygon class="st3" points="147.6,63.5 143.6,62.8 143.6,69.7 147.6,70.3 			"/>
			<path class="st3" d="M147.6,88.1l-2.7-0.2l1.3,1.3c0.3,0.3,0.5,0.8,0.5,1.2v2.3l0.9,0V88.1z"/>
			<polygon class="st3" points="147.6,99.4 145.9,99.4 145.9,104.1 147.6,104.1 			"/>
			<polygon class="st3" points="147.6,53 143.6,52.1 143.6,53.2 147.6,54 			"/>
			<polygon class="st3" points="147.6,58.4 143.6,57.7 143.6,62 147.6,62.8 			"/>
			<polygon class="st3" points="147.6,54.8 143.6,54 143.6,56.9 147.6,57.6 			"/>
			<polygon class="st3" points="152.2,59.2 148.4,58.6 148.4,62.9 152.2,63.6 			"/>
			<polygon class="st3" points="152.2,77.4 148.4,77 148.4,81.6 152.2,82 			"/>
			<polygon class="st3" points="152.2,71.7 148.4,71.2 148.4,76.2 152.2,76.6 			"/>
			<polygon class="st3" points="152.2,82.8 148.4,82.4 148.4,87.3 152.2,87.6 			"/>
			<polygon class="st3" points="152.2,88.4 148.4,88.1 148.4,92.8 152.2,93 			"/>
			<polygon class="st3" points="145.9,115.5 147.6,115.4 147.6,110.5 145.9,110.5 			"/>
			<polygon class="st3" points="152.2,93.7 148.4,93.5 148.4,98.7 152.2,98.7 			"/>
			<polygon class="st3" points="152.2,53.9 148.4,53.1 148.4,54.1 152.2,54.9 			"/>
			<polygon class="st3" points="147.6,104.8 145.9,104.8 145.9,109.8 147.6,109.7 			"/>
			<polygon class="st3" points="152.2,64.4 148.4,63.7 148.4,70.4 152.2,70.9 			"/>
			<polygon class="st3" points="152.2,55.7 148.4,54.9 148.4,57.8 152.2,58.5 			"/>
			<path class="st3" d="M134,82.9l3.3-1.1c0.1,0,0.3-0.1,0.4-0.1v-0.2l-3.6-0.3V82.9z"/>
			<polygon class="st3" points="140.5,98.5 140.5,99.3 140.5,104.1 140.5,104.8 140.5,109.9 140.5,110.7 140.5,115.8 140.5,116.6 
				140.5,125.3 141.4,125.3 141.4,116.5 141.4,115.7 141.4,110.7 141.4,109.9 141.4,104.8 141.4,104.1 141.4,99.3 141.4,98.5 
				141.4,96.1 140.5,95.4 			"/>
			<polygon class="st3" points="137.6,69.6 134,69 134,74.5 137.6,74.9 			"/>
			<polygon class="st3" points="137.6,75.7 134,75.3 134,80.4 137.6,80.7 			"/>
			<polygon class="st3" points="133.2,55.8 132.1,55.6 132,55.7 132,60 133.2,60.2 			"/>
			<polygon class="st3" points="133.2,51.9 132.1,51.7 132,51.8 132,54.8 133.2,55 			"/>
			<polygon class="st3" points="133.2,49.9 132.1,49.7 132,49.7 132,50.9 133.2,51.2 			"/>
			<polygon class="st3" points="137.6,56.6 134,56 134,60.3 137.6,61 			"/>
			<polygon class="st3" points="137.6,52.8 134,52.1 134,55.2 137.6,55.8 			"/>
			<polygon class="st3" points="137.6,50.8 134,50.1 134,51.3 137.6,52 			"/>
			<polygon class="st3" points="137.6,61.7 134,61.1 134,68.2 137.6,68.8 			"/>
			<polygon class="st3" points="142.9,62.7 138.4,61.9 138.4,68.9 142.9,69.6 			"/>
			<polygon class="st3" points="142.9,76.3 138.4,75.8 138.4,80.7 142.9,81.2 			"/>
			<polygon class="st3" points="142.9,70.3 138.4,69.7 138.4,75 142.9,75.6 			"/>
			<path class="st3" d="M138.4,81.8c0.2,0.1,0.4,0.2,0.6,0.3l3.9,3.8v-4l-4.5-0.4V81.8z"/>
			<polygon class="st3" points="142.9,57.6 138.4,56.8 138.4,61.1 142.9,61.9 			"/>
			<polygon class="st3" points="142.9,52 138.4,51 138.4,52.2 142.9,53 			"/>
			<polygon class="st3" points="142.9,53.8 138.4,53 138.4,56 142.9,56.8 			"/>
			<polygon class="st3" points="132.1,40.8 132.1,43.2 151.7,47.8 153.1,46.9 154.6,47.1 154.6,48.4 160.5,49.8 160.5,49.7 
				161.3,49.8 161.3,50 164.2,50.6 164.2,57.2 164.5,57.3 164.3,58 164.2,58 164.2,60.6 164.5,60.7 164.3,61.4 164.2,61.4 
				164.2,65.7 164.5,65.8 164.3,66.5 164.2,66.5 164.2,72.7 164.5,72.8 164.3,73.5 164.2,73.5 164.2,78 164.4,78.1 164.4,78.8 
				164.2,78.8 164.2,83.1 164.4,83.1 164.4,83.9 164.2,83.8 164.2,88.4 164.4,88.4 164.4,89.2 164.2,89.2 164.2,93.5 164.4,93.5 
				164.4,94.3 164.2,94.3 164.2,98.9 164.4,98.9 164.4,99.7 164.2,99.7 164.2,104.1 164.4,104.1 164.4,104.8 164.2,104.8 
				164.2,109.2 164.4,109.2 164.4,109.9 164.2,109.9 164.2,114.3 164.4,114.3 164.4,115.1 164.1,115.1 145.9,116.2 145.9,124.9 
				165.1,123.2 165.1,48.4 			"/>
		</g>
	</g>
</g>
<g>
	<path class="st4" d="M44.8,133.7l-1.9-15.4c0,0,0,0,0,0l-0.2-1.6l0-0.1c0,0,0,0,0,0l-1.5-12.4c0-0.1-0.1-0.1-0.1-0.2l-0.1-0.1
		l-0.6-11.9l0-0.4c0,0,0,0,0,0l-0.6-11.2c0,0,0,0,0,0c0,0,0,0,0,0l0-0.4l-0.5-10.6c0,0,0,0,0,0c0,0,0,0,0,0l0-0.4c0,0,0,0,0,0
		l-0.5-9.3l0-0.5c0,0,0,0,0,0c0,0,0,0,0,0l-0.9-17.8c0,0,0-0.1,0-0.1l-0.3-0.6c0,0,0-0.1,0-0.1l-3-5.6c0,0,0,0,0,0c0,0,0,0,0,0
		l0-0.1c0,0,0,0,0,0l-2.7-4.9l-1.2-2.4l-4.1-7.9l-6-11.5c0,0,0,0,0,0l-0.1-0.2C20.2,8.1,20.1,8,20,8c-0.1,0-0.2,0.1-0.2,0.1
		l-0.6,1.4l-4.2,8.8l-5.2,11L7,35.1l-0.2,0.5l-2.7,5.6c0,0,0,0.1,0,0.1l0,0.1l0,0.1c0,0,0,0.1,0,0.1L2.9,59.5l0,0.5l-0.6,9.4l0,0.5
		L1.7,80.5l0,0.4L1,92.2l0,0.4l-0.7,11.1l-0.9,0.5c-0.1,0-0.1,0.1-0.1,0.2l-1.5,12.4c0,0,0,0,0,0l-2.1,17c0,0,0,0,0,0l-0.2,1.9
		c0,0.1,0,0.1,0.1,0.2c0,0.1,0.1,0.1,0.2,0.1h3.9c0.1,0,0.2-0.1,0.2-0.2l0-0.1h0.6c0,0.1,0,0.1,0.1,0.2c0,0.1,0.1,0.1,0.2,0.1h3.6
		c0.1,0,0.2-0.1,0.2-0.2l0-0.1h0.5c0,0.1,0,0.1,0.1,0.2c0,0.1,0.1,0.1,0.2,0.1h6.5h0.5h7.7h0.7h7.7h0.5h6.5c0.1,0,0.1,0,0.2-0.1
		c0,0,0.1-0.1,0.1-0.2h0.5l0,0.1c0,0.1,0.1,0.2,0.2,0.2h3.6c0.1,0,0.1,0,0.2-0.1c0,0,0.1-0.1,0.1-0.2h0.6l0,0.1
		c0,0.1,0.1,0.2,0.2,0.2h3.9c0.1,0,0.1,0,0.2-0.1c0-0.1,0.1-0.1,0.1-0.2L44.8,133.7C44.8,133.7,44.8,133.7,44.8,133.7z M43.7,129.5
		L43.7,129.5l-1.1-8.6L43.7,129.5z M43,127.4l-4.1-11l2.8,0.9L43,127.4z M41.7,116.8l-3.1-1l0,0l2.7,0.9L41.7,116.8L41.7,116.8z
		 M41.5,116.2l-3-1l-0.1-0.2l-0.3-4.1l-0.4-4.8L41.5,116.2z M28.2,97.8l3.5,2.1l0.3,0.8l0.2,3.3l0.4,6.5L28.2,97.8z M31.5,108.6
		l-1.6-4.6l-1.7-4.7L31.5,108.6z M20.8,109.3l0-14.7l3.9,10.6l2.3,6.2l-3.5-1.1L20.8,109.3L20.8,109.3
		C20.8,109.3,20.8,109.3,20.8,109.3z M19.5,109.4l-2.7,0.9l-3.5,1.1l2.3-6.2l3.9-10.6L19.5,109.4C19.5,109.3,19.5,109.3,19.5,109.4
		L19.5,109.4z M2.9,116.1l0-0.1l3.2-1.1l-4,11.3L2.9,116.1z M1.9,121.7l0.4-4.7l0,0l-0.1,0.9L1.9,121.7z M5.7,50.6l0.4,2.3l-0.2,1.6
		l-0.7,1.2L5.7,50.6z M5.4,46.4l0.1-0.3L5.6,46l-0.1,1L5.4,46.4z M11.7,81.7l1.8-10.3l0.5-3.1l2,9.2L11.7,81.7z M16.1,78.4L13.4,92
		l-0.2-1.1l-1.4-8.3L16.1,78.4z M4.9,100.9l1.8-11.1l0.1-0.7l1.3,9.5c-0.1,0-0.2,0.1-0.2,0.2l-0.2,0.4L4.9,100.9z M7.7,102.3
		L7.4,107L7,111.9l0.5-7.4L7.7,102.3L7.7,102.3z M7.2,100.7l-4,10.9l0.7-8.8l0-0.1l0.7-0.4l0.6-0.4L7.2,100.7z M6.8,54.3l3.1-5.2
		l0,0.2L8,61.1l0,0L6.8,54.3z M7.6,61.7l-3,4.4l1.6-10.8L6.4,55L7.6,61.7z M29.1,57.3l0.1-0.3l3.7,5l0.1,0.4L32.5,65l-1,5.5
		L29.1,57.3z M30.9,70.1l-3.8-4.4l1.7-7.2L30.9,70.1z M33.8,85.8l-3.9-3.6l1.6-8.9L33.8,85.8z M31.8,72.2l3.5,4L34,84.5L31.8,72.2z
		 M31.9,71.2l1.3-7.3l1.9,11L31.9,71.2z M31.3,49l3,4.7l0.2,1.1L33.3,61L31.3,49z M32.7,60.3L29.5,56l1.4-6l0-0.1L32.7,60.3z
		 M29.1,55.5L28.7,55l-2.5-13.9l0-0.1l4.3,6.8l0.1,0.8L29.1,55.5z M28.1,54.1l-4.2-5.6l2-6.3L28.1,54.1z M23.4,47.7l-2.6-15.3
		l4.8,7.5l0.1,0.7L23.4,47.7z M22.7,46.9l-2.3-3.1c0-0.1-0.1-0.1-0.2-0.1c0,0,0,0,0,0c-0.1,0-0.2,0-0.2,0.1l-2.4,3.4l2.6-14.9
		c0,0,0,0,0,0L22.7,46.9z M17.2,47l-2-6.8l4.5-7.7L17.2,47z M16.8,48.4L12.3,55l2.2-13.7l0.1-0.2L16.8,48.4z M11.7,55.3l-1.3-6
		l0.2-1.5l3.1-5.3L11.7,55.3z M11.8,58l1.4,6.4l0.3,1.6l-3.7,4.6L11.8,58z M9.5,69.4L8.3,63l-0.1-0.3l0.1-0.8l2.9-4.2L9.5,69.4z
		 M11.4,56.2l-2.7,3.9l1.5-9.5L11.4,56.2z M8,64.2l1.1,6.4l0.1,0.4l-0.1,0.3l-2.8,3.4L8,64.2z M8.9,72.7L7,84.8l-0.2,1l-0.2-1.5
		l-0.9-6L6,76.8l0.1-0.6L8.9,72.7z M7.6,91.2l-0.5-3.8l0-0.3l3.7-3.6L8.9,94.7l-0.5,2.7L7.6,91.2z M7.3,85.9l0.1-0.6l2.1-12.9
		l1.7,9.5l-0.1,0.3L7.3,85.9z M10,72.4l-0.1-0.8l3.9-4.7l0,0.1l-1.9,10.8l-0.5,2.7L10,72.4z M14,65.4l-0.1,0.1l-0.4-1.7L12,56.6
		l4.6-6.7L14,65.4z M17.2,49.7l2.6,8.6l-5.1,6.3L17.2,49.7z M17.7,48.6l2.6-3.7l2.8,3.7l0,0.2l-2.8,8.6L17.7,48.6z M23.3,50.3
		L25.6,64l-4.9-5.6L23.3,50.3z M23.7,49.4l4.7,6.3l0.3,1.5l-1.9,7.9l-0.5-0.5L23.7,49.4z M26.5,66.1L26.5,66.1L26.5,66.1L26.5,66.1z
		 M26.4,68.6L28.6,81l-4.2-3.8L26.4,68.6z M27.6,72.4l-0.9-5.1l0.2-0.8l4.3,4.9l0.1,0.4l-1.8,9.9l-0.3-0.3L27.6,72.4z M29.7,83.1
		l4,3.6l-1,6.8L32,98.1L29.6,84L29.7,83.1z M34.1,87.5l2.3,12.8l-0.1,0.5c0,0,0,0.1,0,0.1l0,0l-0.1,0.4l-3.7-2.2l-0.2-0.4
		c0,0,0,0,0,0L34.1,87.5z M36.4,102.6l0.1,0.2l0.7,8.8l-4-10.9L36.4,102.6z M36.9,100.4l1.2-7.7l1.8,10.9l-2.8-1.6L36.9,100.4z
		 M37.8,91.3l-1.2,7.5l-2-11.3l3.2,2.9l0.1,0.6L37.8,91.3z M34.4,86.4L34.3,86l1.3-8.4l2,11.6L34.4,86.4z M35.6,74.5l-1.7-10.3
		l-0.2-1.3l2.8,3.7l0.2,1.2L35.6,74.5z M36.8,69.4l1.5,9.2l-2.5-2.8L36.8,69.4z M33.7,61.7l0.1-0.7l0.9-4.7l1.4,8.7L33.7,61.7z
		 M34.6,52.9l-1.2-7.5l-0.5-2.8l2.9,4.9l-1,5.7L34.6,52.9z M33.9,51.8l-2.5-4l1.1-4.6L33.9,51.8z M31.3,46.3L31,47.2l-0.1-0.2
		l-1.8-10.8l0-0.2l3.1,5.3l0,0.2l0.1,0.4L31.3,46.3z M30.3,46l-3.7-5.8l1.7-5.4l0.1,0.1L30.3,46z M26,39.3L25.9,39l-2.2-12.2l4.1,7
		L26,39.3z M25.2,37.9l-4.2-6.7l2.2-4.8L25.2,37.9z M20.5,30.5L20.5,30.5c0-0.1-0.1-0.1-0.1-0.1c0,0,0,0,0,0c0,0,0,0,0,0
		c0,0,0,0,0,0c0,0,0,0,0,0c0,0,0,0,0,0c-0.1,0-0.1,0-0.2,0.1l-2.5-5.6l2.4-4.2l2.8,4.7L20.5,30.5z M19.6,31.2l-4.7,8l0-0.1L17,26
		l0.2-0.4L19.6,31.2z M14.5,38L13,33.1l0-0.3l0.6-1.1l2.5-4.5L14.5,38z M14.2,39.7l-0.1,0.7L11,45.7l1.8-10.9L14.2,39.7z M11.9,37.3
		l-1.6,9.6L10,47.4l-1.4-6.6l2.6-4.6l1.1-2L11.9,37.3z M8.9,44.3L9.7,48l-3,5.2l0-0.2l1.7-11.3L8.9,44.3z M6.3,51.4l-0.5-2.6
		l0.4-3.8l1.4-2.5L6.3,51.4z M5.5,56.5l-1.4,9.5L5,57.4L5.5,56.5z M4.3,67.8L4.3,67.8l3.5-5l-2,12.6l0,0.1l-0.3,0.3L4.3,67.8z
		 M5,76.4l-2.3,2.8L3,76.1l1-6.6l0.9,6.2L5,76.4z M5.5,79.9l0.2,1.5l0.8,5.3L4,89.1l1.3-8.4L5.5,79.9z M6.5,87.7l-0.2,1.5l-1.9,12
		L4,101.4l0-0.4c0-0.1-0.1-0.2-0.2-0.3c-0.1,0-0.2,0-0.3,0.2l-0.4,1.1l-1.3,0.8l2-12.4L6.5,87.7z M2.9,115.4l1.4-0.5l0.1,0
		L2.9,115.4L2.9,115.4z M2.9,102.6L2.9,102.6l-1.1,0.7v0L2.9,102.6z M3.1,114.8l4-10.8l-0.7,9.7L3.1,114.8z M6.8,123.1l0.6-8.7
		l1.4-0.5l2.9-1l-4,10.9l-1.2,3.4L6.8,123.1z M8.1,103.9l0.2-3.3l0.3-0.8l3.5-2.1l-4.5,12.7L8.1,103.9z M8.8,98.6l1-5.9l1.6-9.3
		l1.7,10l-0.2,1l-0.4,2L8.8,98.6z M13.4,94.8l0.2,1l-0.1,0.1c0,0,0,0,0,0L13.1,96L13.4,94.8z M13.8,96.8l4.9-2.9l-5.3,14.5
		L13.8,96.8z M13.3,112l2.2-0.7l1.5-0.5L13.3,112L13.3,112z M14.8,95L14,95.5l-0.4-2.1l2.8-13.9l1.7,7.9l1,4.8L14.8,95z M16.4,77
		l-0.8-3.6l-1.4-6.5l0.2-0.9l5.5-6.7L16.4,77z M20.2,60.2l3.2,16.1l-3-2.7c-0.1-0.1-0.2-0.1-0.3,0l-3.1,3L20.2,60.2z M20.6,59.3
		l5.3,6.1l0.3,2L24,76.5l0,0.2L20.6,59.3z M23.9,79l1.2,6.2L27,95l-0.1,0.6c-0.1,0-0.2,0.1-0.2,0.2l-2.4-1.4l-3.5-2.1l0-0.3
		c0,0,0,0,0-0.1l3.1-12.7L23.9,79z M27,108.4l-5.3-14.5l4.9,2.9L27,108.4z M24.9,111.2l2.2,0.7v0l-3.7-1.2L24.9,111.2z M25.7,85.7
		l-1.5-7.6l4.5,4.1l0.3,1.7l-1.8,9.6L25.7,85.7z M27.9,93.2l1.4-7.8l2.3,13.2l-3.7-2.2l-0.3-1.4L27.9,93.2z M33,114.4l0.6,8.7
		l0.3,4.1L28.6,113l2.9,1L33,114.4z M33.3,104l4,10.8l-3.3-1.1L33.3,104z M37.4,115.4L37.4,115.4l-1.5-0.5l0.1,0L37.4,115.4z
		 M37.5,115.9l0,0.1l0.8,10.1l-4-11.3L37.5,115.9z M38.1,117.9l-0.1-0.9l0,0l0.4,4.7L38.1,117.9z M41.1,112.3l-3.4-8.9l2.5,1.4
		L41.1,112.3z M39.7,92.3l0.6,10.2l-1.9-11.4l0,0L39.7,92.3z M39.3,84.9l0.3,6.3l-1.2-1.1L39.3,84.9z M38.4,87.4l-0.3,2.1L36,77
		l2.6,3l0.5,3.2L38.4,87.4z M39,79.4L39,79.4l-2-11.6l0-0.2l1.4,1.9L39,79.4z M38.4,68.1l-1.2-1.6l0.8-5.2L38.4,68.1z M37.8,59.4
		l-1,6.6l-0.1-0.1l-1.8-11L37.8,59.4z M35.1,53.7l1-5.4l1.6,9.4L35.1,53.7z M37.5,50.3l0.2,4.5l-1-5.7l0.2,0.3L37.5,50.3z
		 M37.4,49.2L37,48.5l-0.5-0.8l0-0.1l-0.1-0.7l0.7-3.8L37.4,49.2z M34.9,37.3l2,3.9l-0.8,4.3l0,0l-1.5-8.6L34.9,37.3z M34.4,38.1
		l1.4,8.3l-2.9-4.9l1.2-5L34.4,38.1z M31.9,31.6l2,3.7l-1.3,5.3l-1.9-11.3L31.9,31.6z M32,40l-3.1-5.3l-0.2-1.1l1.5-4.7L32,40z
		 M29.8,27.6L28.4,32l-1.7-10.1L29.8,27.6z M25.9,20.5l1.6,9.4l0.5,3.1L28,33.2l-4.5-7.7l2.4-5.3L25.9,20.5z M25.4,19.5l-2.2,4.9
		l-2.4-13.5L25.4,19.5z M19.4,10.6L20,9.4l0,0.1l2.7,14.8L21.9,23L20.2,20c0-0.1-0.1-0.1-0.2-0.1c-0.1,0-0.2,0-0.2,0.1l-2.4,4.2
		L17.3,24L19.4,10.6z M15.3,19.2l3.4-7.1l-1.8,11l-1.7-3.8L15.3,19.2z M15,20.8l1.7,3.8l-0.2,1.3L15.8,27l-2.5,4.5L15,20.8z
		 M14.5,20.8L12.7,32l-1.4-4.6L14.5,20.8z M10.1,30.1l0.8-1.6l1.4,4.8L11.9,34l-3.3,5.8L10.1,30.1z M9.3,31.6l-1.1,7.2l-0.7-3.4
		L9.3,31.6z M7.2,36.2l0.9,4L7.9,41l-0.2,0.4l-1.3,2.3L7.2,36.2z M4.7,41.3l1.8-3.8l-0.6,6.1l-0.1,1.2l-0.4,0.7l-0.1,0.1l-0.7-3.7
		L4.7,41.3z M4.5,44l0.4,2.3L4.5,47l-0.2,0.3L4.5,44z M4.3,48.5l0.1-0.2l0.7-1.2l0.3,1.7l-0.2,1.8l-0.6,6.1l-0.9,1.5L4.3,48.5z
		 M3.6,59.8l0.8-1.3l-0.6,5.6l-0.2-1.5l-0.1-0.8L3.6,59.8z M3.3,64.3l0.2,1.6l0,0.3l-0.2,1.5l0,0.2l-0.3,0.5L3.3,64.3z M3,69.7
		l0.3-0.4l-0.6,5.6L3,69.7z M2,86.6l0.6-6l2.6-3.1l0.1,0.9l-0.4,2.5l-1.4,9l-1.8,1.7L2,86.6z M1.6,92.5l1.6-1.6L1.3,103L1,103.2
		L1.6,92.5z M-0.3,104.5l0.1-0.1c-0.1,0-0.1,0.1-0.1,0.2L-0.3,104.5z M0.2,104.8l0.2-0.1c0,0,0,0,0,0c0.1,0,0.1,0,0.2,0
		c0,0,0.1,0,0.1,0c0,0,0.1,0,0.1,0l0.8-0.5l1-0.7l-3.3,8.7L0.2,104.8z M2.6,106.1l-0.4,4.8L1.9,115l-0.1,0.2l-3,1L2.6,106.1z
		 M-1.4,116.8l0.4-0.1l2.7-0.9l0,0L-1.4,116.8L-1.4,116.8z M1.4,116.4l-4.1,11l1.2-10.1L1.4,116.4z M-2.2,119.7l-1.2,9.8l0,0
		L-2.2,119.7z M-4.1,135.5l0-0.3C-4.1,135.2-4.1,135.3-4.1,135.5c0.1,0,0.2,0,0.3,0H-4.1z M0.3,135.2h-0.4l0.5-1.5L0.3,135.2z
		 M-1,135h-2.5l0.4-3.2l4.8-13.1l-0.9,11.1L-1,135z M1.1,135.5L1.1,135.5C1.1,135.5,1.1,135.5,1.1,135.5L1.1,135.5z M5,135.2H4.6
		l0.4-1.1L5,135.2z M3.7,135H1.4l0.4-4.9l4.4-12.4l-0.3,3.7l-0.6,9.2L3.7,135z M5.7,135.5L5.7,135.5C5.7,135.5,5.7,135.5,5.7,135.5
		L5.7,135.5z M5.9,128.9l0.1-2L5.9,128.9L5.9,128.9z M11.8,125l-0.4,10H6l0.3-4.2l5.9-16.2L11.8,125z M12.2,113l-5.9,16v0l1.6-4.4
		L12.2,113L12.2,113z M12.1,111.8l-4.5,1.5L12.7,99l-0.4,12.4L12.1,111.8z M12.4,135l0.8-21.3l0-1.1l2-0.7l4.3-1.4l0,24.5H12.4z
		 M20.3,135.5h-0.2l0,0c0,0,0.1,0,0.1,0C20.2,135.4,20.2,135.4,20.3,135.5L20.3,135.5z M20.4,91.8l-0.1,0.1l-0.1-0.1
		c-0.1,0-0.1,0-0.2,0l-0.1,0c-0.1,0-0.2,0-0.3,0c0,0-0.1,0-0.1,0.1l-0.1-0.6l-2.8-12.9l0.1-0.4l3.5-3.4l3.4,3.1l0.1,0.3L20.4,91.8z
		 M20.8,135l0-24.5l4.3,1.4l2,0.7l0,1.1l0.8,21.3H20.8z M27.6,99l5.1,14.3l-4.5-1.5l-0.1-0.4L27.6,99z M28.1,113l4.5,12.2L34,129v0
		L28.1,113L28.1,113z M28.9,135l-0.7-20.1l0-0.2l5.9,16.2l0.3,4.2H28.9z M34.5,128.9l-0.1-2L34.5,128.9L34.5,128.9z M34.6,135.5
		C34.6,135.5,34.7,135.5,34.6,135.5L34.6,135.5L34.6,135.5z M35.4,135.2l-0.1-1.1l0.4,1.1H35.4z M36.7,135l-1.6-4.4l-0.6-9.2
		l-0.3-3.7l4.4,12.4L39,135H36.7z M39.3,135.5C39.3,135.5,39.3,135.5,39.3,135.5L39.3,135.5L39.3,135.5z M40,135.2l-0.1-1.5l0.5,1.5
		H40z M41.4,135l-1.8-5.1l-0.9-11.1l4.8,13.1l0.4,3.2H41.4z M44.2,135.5c0.1,0,0.1,0,0.2-0.1c0-0.1,0.1-0.1,0.1-0.2l0,0.3H44.2z"/>
</g>
</svg>
